<svg width="17" height="16" viewBox="0 0 17 16" fill="none" xmlns="http://www.w3.org/2000/svg">
<path fill-rule="evenodd" clip-rule="evenodd" d="M6.65349 0.712252C5.57196 0.790129 4.52474 1.12552 3.59919 1.69043C2.67365 2.25534 1.89661 3.0334 1.33292 3.95969C0.769235 4.88599 0.435234 5.93365 0.358787 7.01528C0.282339 8.09691 0.465663 9.18113 0.893464 10.1775C1.32126 11.1739 1.98114 12.0535 2.81802 12.743C3.65491 13.4324 4.64455 13.9118 5.70437 14.141C6.76419 14.3702 7.86346 14.3427 8.91047 14.0607C9.95748 13.7786 10.9219 13.2503 11.7232 12.5198L14.8468 15.2243C15.0078 15.3588 15.2151 15.4247 15.4242 15.4079C15.6333 15.391 15.8274 15.2927 15.9647 15.1341C16.102 14.9755 16.1715 14.7694 16.1583 14.56C16.1451 14.3507 16.0501 14.1549 15.894 14.0149L12.7703 11.3104C13.4867 10.2535 13.8912 9.01637 13.9373 7.74043C13.9834 6.46449 13.6694 5.20134 13.0312 4.09554C12.393 2.98973 11.4563 2.08594 10.3284 1.48761C9.20052 0.889281 7.92696 0.620577 6.65349 0.712252ZM1.95468 7.86776C1.85575 6.49219 2.30732 5.13365 3.21004 4.09102C4.11276 3.04839 5.39269 2.40706 6.76826 2.30813C8.14384 2.2092 9.50237 2.66076 10.545 3.56348C11.5876 4.4662 12.229 5.74614 12.3279 7.12171C12.4268 8.49728 11.9753 9.85582 11.0725 10.8984C10.1698 11.9411 8.88988 12.5824 7.51431 12.6813C6.13874 12.7803 4.78021 12.3287 3.73757 11.426C2.69494 10.5233 2.05362 9.24333 1.95468 7.86776Z" fill="white"/>
</svg>
